<?xml version="1.0" encoding="utf-8"?>
<!-- Generator: Adobe Illustrator 25.4.1, SVG Export Plug-In . SVG Version: 6.00 Build 0)  -->
<svg version="1.1" id="Слой_1" xmlns="http://www.w3.org/2000/svg" xmlns:xlink="http://www.w3.org/1999/xlink" x="0px" y="0px"
	 viewBox="0 0 434.65 104.42" style="enable-background:new 0 0 434.65 104.42;" xml:space="preserve">
<style type="text/css">
	.st0{fill:#0177A6;}
</style>
<g>
	<path class="st0" d="M98.4,0H6.02C2.69,0,0,2.69,0,6.02V98.4c0,3.32,2.69,6.02,6.02,6.02H98.4c3.32,0,6.02-2.69,6.02-6.02V6.02
		C104.42,2.69,101.73,0,98.4,0z M83.56,93.51L62.62,68.28v25.23H49.27V23.81H37.39c-6.68,0-10.41,2.38-10.41,10.98v2.15h13.92v13.35
		H26.97v43.23H13.62V50.29H4.12V36.93h9.51v-3.06c0-16.3,8.71-22.97,22.63-22.97h26.37v49.23l19.46-23.2h16.86L75.98,64.21
		l24.33,29.31H83.56z"/>
	<g>
		<path class="st0" d="M133.23,92.77V21.13h18.04v27.33l25.48-27.33h22.03l-28.99,30.1l29.67,41.53h-21.88l-20.13-28.69l-6.18,6.18
			v22.52H133.23z"/>
		<path class="st0" d="M206.03,92.77V21.13h51.41v14.88h-33.17v14.83h28.79v14.83h-28.79v27.09H206.03z"/>
		<path class="st0" d="M265.61,92.77V21.13h17.31v71.64H265.61z"/>
		<path class="st0" d="M344.14,39.9v52.87h-16.92v-7.29c-2.08,2.95-4.42,5.12-7.03,6.52c-2.61,1.39-5.62,2.09-9.02,2.09
			c-5.84,0-10.23-1.5-13.18-4.5c-2.95-3-4.43-7.45-4.43-13.35V39.9h17.31v29.57c0,4.35,0.54,7.34,1.63,8.97
			c1.09,1.64,2.97,2.46,5.67,2.46c3.02,0,5.21-1,6.59-2.99c1.38-1.99,2.07-5.24,2.07-9.75V39.9H344.14z"/>
		<path class="st0" d="M353.36,35.09V21.13h17.22v13.96H353.36z M353.36,92.77V39.9h17.22v52.87H353.36z"/>
		<path class="st0" d="M434.65,21.13v71.64h-17.31v-6.96c-1.95,2.89-4.19,5.02-6.74,6.4c-2.55,1.38-5.52,2.07-8.92,2.07
			c-6.61,0-11.98-2.55-16.1-7.66c-4.12-5.11-6.18-11.79-6.18-20.06c0-8.33,2.07-15.12,6.2-20.38c4.13-5.25,9.43-7.88,15.88-7.88
			c3.47,0,6.56,0.7,9.26,2.09c2.71,1.39,4.94,3.45,6.69,6.18V21.13H434.65z M397.29,65.78c0,4.73,0.88,8.36,2.65,10.87
			s4.3,3.77,7.61,3.77c3.31,0,5.81-1.24,7.51-3.72c1.7-2.48,2.55-6.12,2.55-10.92c0-4.44-0.89-7.88-2.67-10.31
			c-1.78-2.43-4.31-3.65-7.59-3.65c-3.08,0-5.53,1.25-7.34,3.74C398.2,58.06,397.29,61.46,397.29,65.78z"/>
	</g>
</g>
</svg>
