<svg width="331" height="80" viewBox="0 0 331 80" fill="none" xmlns="http://www.w3.org/2000/svg">
<g clip-path="url(#clip0_1_5)">
<path d="M74.9425 0.0230103H4.58456C3.37274 0.0230103 2.21055 0.507317 1.35366 1.36939C0.496765 2.23146 0.0153694 3.40068 0.0153694 4.61983V75.3955C0.0153694 76.6147 0.496765 77.7839 1.35366 78.646C2.21055 79.5081 3.37274 79.9924 4.58456 79.9924H74.9425C76.1544 79.9924 77.3165 79.5081 78.1734 78.646C79.0303 77.7839 79.5117 76.6147 79.5117 75.3955V4.61983C79.5117 3.40068 79.0303 2.23146 78.1734 1.36939C77.3165 0.507317 76.1544 0.0230103 74.9425 0.0230103ZM63.6338 71.6415L47.6949 52.3118V71.6415H37.5208V18.2341H28.4738C23.3868 18.2341 20.5463 20.0575 20.5463 26.6616V28.2935H31.1468V38.5214H20.5463V71.6415H10.3798V38.5214H3.13004V28.2935H10.3722V25.995C10.3722 13.507 17.0052 8.3739 27.6057 8.3739H47.6949V46.0678L62.5295 28.2935H75.369L57.8537 49.186L76.3818 71.6415H63.6338Z" fill="#0177A6"/>
<path d="M101.459 71.0745V16.1885H115.167V37.127L134.608 16.1885H151.362L129.278 39.2492L151.872 71.0745H135.233L119.903 49.0557L115.197 53.7905V71.0439L101.459 71.0745Z" fill="#0177A6"/>
<path d="M156.898 71.0745V16.1885H196.049V27.6039H170.789V38.9504H192.751V50.3199H170.789V71.0745H156.898Z" fill="#0177A6"/>
<path d="M202.271 71.0745V16.1885H215.453V71.0745H202.271Z" fill="#0177A6"/>
<path d="M262.051 30.5688V71.0745H249.181V65.4817C247.819 67.5449 245.992 69.2562 243.85 70.4769C241.732 71.5726 239.378 72.1228 236.996 72.0781C232.549 72.0781 229.203 70.9289 226.959 68.6305C224.715 66.3321 223.581 62.9228 223.555 58.4026V30.5688H236.738V53.2235C236.738 56.5562 237.156 58.847 237.979 60.1187C238.801 61.3905 240.263 62.0034 242.297 62.0034C244.586 62.0034 246.259 61.2373 247.315 59.705C248.371 58.1728 248.897 55.6828 248.892 52.2352V30.5688H262.051Z" fill="#0177A6"/>
<path d="M269.103 26.8838V16.1578H282.209V26.8838H269.103ZM269.103 71.0745V30.5689H282.209V71.0745H269.103Z" fill="#0177A6"/>
<path d="M331 16.1885V71.0745H317.818V65.7116C316.529 67.7416 314.767 69.4247 312.685 70.6148C310.587 71.7033 308.252 72.2459 305.892 72.1931C303.534 72.2548 301.194 71.7555 299.063 70.7357C296.933 69.716 295.072 68.2045 293.632 66.3245C290.494 62.4172 288.925 57.2943 288.925 50.9558C288.925 44.6173 290.499 39.4152 293.647 35.3496C295.038 33.4457 296.861 31.9043 298.965 30.854C301.069 29.8038 303.392 29.2752 305.74 29.3124C308.187 29.2648 310.609 29.8142 312.799 30.9136C314.884 32.0048 316.64 33.6368 317.886 35.6407V16.1885H331ZM302.557 50.3888C302.557 54.0203 303.229 56.7963 304.575 58.7167C305.216 59.6552 306.085 60.4131 307.099 60.9186C308.114 61.4242 309.24 61.6604 310.37 61.6051C311.492 61.6715 312.611 61.4438 313.619 60.9442C314.627 60.4446 315.489 59.6903 316.12 58.755C317.424 56.855 318.074 54.0663 318.069 50.3888C318.069 46.9872 317.389 44.3542 316.028 42.49C315.372 41.5795 314.501 40.8478 313.493 40.3609C312.485 39.874 311.373 39.6473 310.256 39.7012C309.159 39.6709 308.073 39.9173 307.095 40.4177C306.117 40.9182 305.28 41.6569 304.659 42.5666C303.262 44.4819 302.562 47.0893 302.557 50.3888Z" fill="#0177A6"/>
</g>
<defs>
<clipPath id="clip0_1_5">
<rect width="331" height="80" fill="white"/>
</clipPath>
</defs>
</svg>
