<?xml version="1.0" standalone="no"?>
<!DOCTYPE svg PUBLIC "-//W3C//DTD SVG 20010904//EN"
 "http://www.w3.org/TR/2001/REC-SVG-20010904/DTD/svg10.dtd">
<svg version="1.0" xmlns="http://www.w3.org/2000/svg"
 width="630.000000pt" height="356.000000pt" viewBox="0 0 630.000000 356.000000"
 preserveAspectRatio="xMidYMid meet">

<g transform="translate(0.000000,356.000000) scale(0.100000,-0.100000)"
fill="#000000" stroke="none">
<path d="M0 1780 l0 -1780 3150 0 3150 0 0 1780 0 1780 -3150 0 -3150 0 0
-1780z m3248 718 l2 -808 -310 0 -309 0 -3 148 -3 147 -110 -165 -110 -165 -5
-275 -5 -275 -177 -3 -176 -2 -33 -53 c-19 -28 -37 -56 -42 -62 -5 -5 -37 -55
-72 -110 -36 -55 -83 -127 -105 -160 -23 -33 -69 -103 -103 -155 l-62 -95 -83
-5 c-45 -3 -82 -2 -82 3 0 7 42 76 63 102 11 15 135 204 139 213 8 19 164 247
170 250 5 2 8 8 8 12 0 8 115 188 137 215 5 6 40 60 78 120 38 61 72 112 75
115 6 6 32 45 175 265 54 83 133 203 176 268 44 64 79 119 79 121 0 2 16 27
35 56 l35 52 0 151 0 151 -61 -95 c-56 -86 -245 -373 -269 -409 -6 -8 -39 -60
-75 -115 -35 -55 -69 -107 -75 -115 -6 -8 -38 -58 -72 -110 -65 -100 -166
-255 -363 -555 -65 -99 -134 -205 -153 -235 -51 -80 -106 -163 -115 -175 -4
-5 -48 -72 -97 -147 l-89 -136 -81 -4 c-44 -2 -80 1 -80 6 0 5 29 52 64 105
78 118 269 410 307 471 16 25 32 50 36 55 5 6 24 35 44 65 20 30 79 120 131
200 52 80 130 199 173 265 99 153 148 227 158 240 4 5 36 55 72 110 35 55 68
105 74 112 6 7 11 15 11 17 0 3 29 50 65 103 36 54 70 105 75 113 6 8 48 74
95 145 47 72 89 137 95 145 6 8 37 57 70 108 l61 92 -3 118 -3 117 -79 -120
c-44 -66 -83 -122 -86 -125 -3 -3 -25 -36 -50 -75 -25 -38 -47 -72 -50 -75 -3
-3 -21 -30 -41 -60 -89 -136 -114 -175 -119 -180 -3 -3 -50 -72 -105 -155 -55
-82 -104 -154 -108 -160 -4 -5 -29 -42 -55 -81 -26 -39 -123 -185 -217 -325
-93 -139 -200 -298 -237 -353 -37 -56 -73 -108 -79 -117 -6 -8 -32 -47 -57
-86 -55 -82 -144 -214 -155 -228 -4 -5 -64 -95 -134 -200 -175 -264 -150 -239
-244 -245 -43 -3 -79 -1 -79 4 0 10 193 304 215 327 8 9 15 19 15 23 0 6 78
125 90 136 3 3 25 37 50 75 25 39 47 72 50 75 3 3 21 30 41 60 56 86 318 477
332 495 8 11 15 21 295 440 103 154 190 285 195 290 4 6 26 39 50 75 23 36 44
67 47 70 5 5 257 380 412 614 37 56 71 106 76 112 5 5 15 20 21 32 l12 22 307
-2 307 -3 3 -807z m-293 -1007 l110 -159 3 159 2 159 80 0 80 0 0 -275 0 -275
-91 0 c-100 0 -95 -3 -146 75 -14 22 -29 42 -33 45 -4 3 -20 25 -35 50 -16 25
-33 50 -40 55 -10 9 -26 32 -87 124 -17 25 -18 20 -18 -161 l0 -188 -85 0 -85
0 0 268 c0 148 3 272 7 275 3 4 56 7 117 6 l111 0 110 -158z m603 53 l3 -100
101 103 102 103 97 0 c54 0 100 -4 103 -9 3 -5 -9 -20 -27 -34 -17 -14 -52
-44 -77 -68 -25 -24 -60 -55 -78 -69 l-32 -25 120 -167 c66 -91 120 -169 120
-172 0 -4 -48 -5 -107 -4 l-108 3 -42 65 c-23 36 -46 70 -51 76 -6 6 -17 24
-25 41 -26 49 -38 54 -69 28 -27 -23 -28 -28 -28 -120 l0 -95 -110 0 -110 0 0
275 0 276 108 -3 107 -3 3 -101z m932 82 c65 -27 107 -62 136 -116 26 -48 27
-218 2 -271 -45 -92 -156 -148 -299 -149 -168 -1 -290 68 -324 183 -36 121 -1
263 77 319 61 43 115 56 236 57 97 1 120 -2 172 -23z m561 -3 c7 -16 15 -37
19 -48 7 -18 25 -64 50 -130 27 -70 49 -118 50 -108 0 11 37 100 60 144 4 8
22 50 40 92 l32 78 147 -3 146 -3 3 -272 2 -273 -100 0 -100 0 -1 218 c0 120
-4 206 -9 192 -6 -22 -91 -230 -122 -300 -18 -42 -26 -64 -33 -87 -6 -21 -12
-23 -84 -23 l-78 0 -31 78 c-36 91 -97 257 -109 292 -5 16 -10 -48 -13 -170
l-5 -195 -87 -3 -88 -3 0 276 0 275 150 0 150 0 11 -27z m-1806 -863 l0 -285
-307 -3 -308 -2 0 290 0 290 308 -2 307 -3 0 -285z m125 30 c0 -45 4 -62 15"/>
<path d="M4283 1539 c-47 -14 -65 -48 -71 -135 -5 -82 10 -154 38 -179 20 -18
88 -23 128 -11 12 4 27 17 33 28 15 28 23 173 12 222 -14 63 -74 95 -140 75z"/>




</g>
</svg>
