<?xml version="1.0" encoding="utf-8"?>
<!-- Generator: Adobe Illustrator 25.4.1, SVG Export Plug-In . SVG Version: 6.00 Build 0)  -->
<svg version="1.1" id="Слой_1" xmlns="http://www.w3.org/2000/svg" height="168" xmlns:xlink="http://www.w3.org/1999/xlink" x="0px" y="0px"
	 viewBox="0 0 864.6 869.8"  xml:space="preserve">
<style type="text/css">
	.st0{fill-rule:evenodd;clip-rule:evenodd;fill:#12100B;}
	.st1{fill-rule:evenodd;clip-rule:evenodd;fill:#FFFFFF;}
	.st2{fill:#12100B;}
	.st3{fill-rule:evenodd;clip-rule:evenodd;fill:#E30613;}
</style>
<g>
	<polygon class="st0" points="152.9,562.8 425,657.4 152.9,752 152.9,562.8 	"/>
	<polygon class="st1" points="180.9,599.4 343.8,657.4 180.9,714 180.9,599.4 	"/>
	<path class="st0" d="M697.2,562.8l-272.1,94.6L697.2,752C697.2,485.5,697.2,819.7,697.2,562.8L697.2,562.8z"/>
	<polygon class="st1" points="669.3,714.9 506.3,657.6 669.3,599.5 669.3,714.9 	"/>
	<g>
		<path class="st2" d="M5.3,248.9l40.6-2.5c0.9,6.6,2.7,11.6,5.4,15.1c4.4,5.6,10.7,8.4,18.8,8.4c6.1,0,10.8-1.4,14.1-4.3
			c3.3-2.9,4.9-6.2,4.9-9.9c0-3.6-1.6-6.8-4.7-9.6c-3.1-2.8-10.4-5.5-21.8-8c-18.7-4.2-32-9.8-40-16.8c-8-7-12-15.8-12-26.6
			c0-7.1,2.1-13.8,6.2-20.1c4.1-6.3,10.3-11.3,18.5-14.9c8.3-3.6,19.6-5.4,33.9-5.4c17.6,0,31.1,3.3,40.3,9.8
			c9.3,6.6,14.8,17,16.5,31.3l-40.2,2.4c-1.1-6.2-3.3-10.7-6.7-13.6c-3.4-2.8-8.1-4.2-14.2-4.2c-5,0-8.7,1.1-11.2,3.2
			c-2.5,2.1-3.8,4.7-3.8,7.7c0,2.2,1,4.2,3.1,5.9c2,1.8,6.8,3.5,14.3,5.1c18.6,4,32,8.1,40.1,12.2c8.1,4.1,13.9,9.2,17.6,15.3
			c3.7,6.1,5.5,12.9,5.5,20.4c0,8.8-2.4,17-7.3,24.5c-4.9,7.5-11.7,13.1-20.5,17c-8.8,3.9-19.9,5.8-33.2,5.8
			c-23.5,0-39.7-4.5-48.8-13.6S6.5,262.9,5.3,248.9z"/>
		<path class="st2" d="M152.5,156.6h114.3v29.5h-71.5V208h66.4v28.1h-66.4v27.2h73.6v31.3H152.5V156.6z"/>
		<path class="st2" d="M292.4,156.6h114.3v29.5h-71.5V208h66.4v28.1h-66.4v27.2h73.6v31.3H292.4V156.6z"/>
		<path class="st2" d="M422.6,156.6h129.6v34.1h-43.5v103.9h-42.6V190.7h-43.5V156.6z"/>
		<path class="st2" d="M572.7,294.6v-138h71.1c13.2,0,23.2,1.1,30.2,3.4c7,2.3,12.6,6.4,16.8,12.6c4.3,6.1,6.4,13.6,6.4,22.4
			c0,7.7-1.6,14.3-4.9,19.8c-3.3,5.6-7.8,10.1-13.5,13.5c-3.6,2.2-8.6,4-15,5.5c5.1,1.7,8.8,3.4,11.1,5.1c1.6,1.1,3.8,3.5,6.8,7.3
			c3,3.7,5,6.6,6,8.6l20.6,40h-48.2l-22.8-42.2c-2.9-5.5-5.5-9-7.7-10.6c-3.1-2.1-6.6-3.2-10.4-3.2h-3.8v56H572.7z M615.6,212.5h18
			c1.9,0,5.7-0.6,11.3-1.9c2.8-0.6,5.1-2,6.9-4.3c1.8-2.3,2.7-5,2.7-8c0-4.5-1.4-7.9-4.2-10.3c-2.8-2.4-8.1-3.6-15.9-3.6h-18.7
			V212.5z"/>
		<path class="st2" d="M809.3,156.6h42.5v82.2c0,8.2-1.3,15.9-3.8,23.1c-2.5,7.2-6.5,13.6-12,19c-5.4,5.4-11.1,9.2-17.1,11.4
			c-8.3,3.1-18.2,4.6-29.8,4.6c-6.7,0-14-0.5-22-1.4c-7.9-0.9-14.6-2.8-19.9-5.6c-5.3-2.8-10.2-6.8-14.6-11.9
			c-4.4-5.1-7.5-10.4-9.1-15.9c-2.6-8.8-4-16.6-4-23.3v-82.2h42.5v84.2c0,7.5,2.1,13.4,6.3,17.6c4.2,4.2,10,6.3,17.4,6.3
			c7.3,0,13.1-2.1,17.3-6.3c4.2-4.2,6.3-10.1,6.3-17.7V156.6z"/>
	</g>
	<polygon class="st3" points="152.9,780 425,685.4 697,780 697,861.5 152.9,861.5 152.9,780 	"/>
	<polygon class="st3" points="152.9,318.1 152.9,535.6 425,630.2 697,534.9 697,318.1 152.9,318.1 	"/>
	<polygon class="st3" points="152.9,8.3 152.9,134.7 697,134.7 697,8.3 152.9,8.3 	"/>
</g>
</svg>